<?xml version="1.0" encoding="UTF-8"?>
<svg xmlns="http://www.w3.org/2000/svg" width="403.0" height="292.5" viewBox="0 0 124.0 90.0">
  <g>
    <path d="m21.74,26.67c0.19,-1.62 1.35,-2.95 2.92,-3.38l11.38,-3.1c1.27,-0.35 2.53,0.61 2.53,1.93v17.88l-21.06,22z" fill="#B0C6FF" />
    <path d="m67,7.5 l3.5,23 -31.71,37.86c-1.07,1.28 -2.84,1.76 -4.41,1.2l-15.53,-5.55c-1.35,-0.48 -1.77,-2.18 -0.8,-3.24z" fill="#7A90C8" />
    <path d="m66.72,8.29c-0.11,-0.65 0.43,-1.23 1.09,-1.16l17.39,1.74c0.79,0.08 1.46,0.62 1.7,1.37l20.91,64.63c0.37,1.13 -0.33,2.33 -1.5,2.57l-22.76,4.71c-2.22,0.46 -4.37,-1.01 -4.75,-3.24z" fill="#475D92" />
  </g>
</svg>
